<?xml version="1.0" encoding="UTF-8"?>
<svg version="1.1" xmlns="http://www.w3.org/2000/svg" width="32" height="32">
<path d="M0 0 C7.26 0 14.52 0 22 0 C27.49920761 10.31101426 27.49920761 10.31101426 27 15 C25.62304688 16.94458008 25.62304688 16.94458008 23.71875 18.76953125 C23.04199219 19.43017578 22.36523438 20.09082031 21.66796875 20.77148438 C20.95253906 21.44501953 20.23710937 22.11855469 19.5 22.8125 C18.78457031 23.50537109 18.06914062 24.19824219 17.33203125 24.91210938 C15.56539579 26.61985699 13.78817513 28.31486688 12 30 C7.62128618 27.98716092 4.62119821 25.13386348 1.1875 21.8125 C0.57712891 21.26013672 -0.03324219 20.70777344 -0.66210938 20.13867188 C-3.69169401 17.1978913 -4.96354437 15.91347394 -5.13671875 11.57421875 C-4 8 -4 8 0 0 Z " fill="#55B198" transform="translate(5,1)"/>
<path d="M0 0 C4.62 0 9.24 0 14 0 C14 0.99 14 1.98 14 3 C12.35 3 10.7 3 9 3 C9 4.98 9 6.96 9 9 C10.98 9 12.96 9 15 9 C15 8.34 15 7.68 15 7 C15.66 7 16.32 7 17 7 C16.67 7.99 16.34 8.98 16 10 C13.69 10.33 11.38 10.66 9 11 C9 13.31 9 15.62 9 18 C7.68 18 6.36 18 5 18 C5 15.69 5 13.38 5 11 C2.69 10.67 0.38 10.34 -2 10 C-2.33 9.01 -2.66 8.02 -3 7 C-2.34 7 -1.68 7 -1 7 C-1 7.66 -1 8.32 -1 9 C0.98 9 2.96 9 5 9 C5 7.02 5 5.04 5 3 C3.35 3 1.7 3 0 3 C0 2.01 0 1.02 0 0 Z " fill="#F8FCFB" transform="translate(9,6)"/>
<path d="M0 0 C0.66 0 1.32 0 2 0 C2 0.66 2 1.32 2 2 C7.28 2 12.56 2 18 2 C18 1.34 18 0.68 18 0 C18.66 0 19.32 0 20 0 C19.67 0.99 19.34 1.98 19 3 C16.69 3.33 14.38 3.66 12 4 C12 6.31 12 8.62 12 11 C10.68 11 9.36 11 8 11 C8 8.69 8 6.38 8 4 C5.69 3.67 3.38 3.34 1 3 C0.67 2.01 0.34 1.02 0 0 Z " fill="#98D0C1" transform="translate(6,13)"/>
<path d="M0 0 C1.32 0 2.64 0 4 0 C4 2.64 4 5.28 4 8 C2.68 8 1.36 8 0 8 C0 5.36 0 2.72 0 0 Z " fill="#F3F9F8" transform="translate(14,16)"/>
<path d="M0 0 C0.33 0 0.66 0 1 0 C1 1.65 1 3.3 1 5 C-0.98 5 -2.96 5 -5 5 C-5.33 4.01 -5.66 3.02 -6 2 C-4.02 2 -2.04 2 0 2 C0 1.34 0 0.68 0 0 Z " fill="#63B8A1" transform="translate(13,10)"/>
<path d="M0 0 C0.33 0.66 0.66 1.32 1 2 C2.65 2 4.3 2 6 2 C6 2.99 6 3.98 6 5 C4.02 5 2.04 5 0 5 C0 3.35 0 1.7 0 0 Z " fill="#64B8A1" transform="translate(18,10)"/>
</svg>
